# xmcd CD database file
#
# Track frame offsets:
#	182
#	12535
#	23945
#	39375
#	56337
#	68962
#	77580
#	91227
#	102045
#	117090
#	127310
#	139642
#	156935
#	173147
#	189670
#	206207
#	221152
#	242812
#	254567
#
# Disc length: 3625 seconds
#
# Revision: 3
# Processed by: cddbd v1.5.2PL0 Copyright (c) Steve Scherf et al.
# Submitted via: CDex 1.51
#
DISCID=140e2713
DTITLE=Ella Fitzgerald - Vol. 159 - Ella Fitzgerald 1957-1958
DYEAR=1959
DGENRE=Jazz
TTITLE0=It's All Right With Me
TTITLE1=Don'cha Go 'Way Mad
TTITLE2=Bewitched, Bothered and Bewildered
TTITLE3=These Foolish Things
TTITLE4=Ill Wind
TTITLE5=Goody Goody
TTITLE6=Moonlight In Vermont
TTITLE7=You Got Me Singing The Blues
TTITLE8=Angel Eyes
TTITLE9=Lulliby of Birdland
TTITLE10=Tenderfly
TTITLE11=Do Nothing Till You Hear From Me
TTITLE12=April In Paris
TTITLE13=I Can't Give You Anything But Love
TTITLE14=Love For Sale
TTITLE15=Just One Of Those Things
TTITLE16=I Love You Porgy
TTITLE17=The Lady Is A Tramp
TTITLE18=Sophisticated Lady
EXTD=YEAR: 1959
EXTT0=
EXTT1=
EXTT2=
EXTT3=
EXTT4=
EXTT5=
EXTT6=
EXTT7=
EXTT8=
EXTT9=
EXTT10=
EXTT11=
EXTT12=
EXTT13=
EXTT14=
EXTT15=
EXTT16=
EXTT17=
EXTT18=
PLAYORDER=
